<svg width="158" height="48" viewBox="0 0 158 48" fill="none" xmlns="http://www.w3.org/2000/svg">
<path d="M11.1579 32.6086C9.74831 32.6086 8.46682 31.4608 8.46682 30.0579C8.46682 28.655 9.62016 27.5072 11.1579 27.5072C12.6957 27.5072 13.8491 28.655 13.8491 30.0579C13.8491 31.4608 12.5676 32.6086 11.1579 32.6086ZM44.2202 18.7072C43.9639 16.6666 42.6824 15.0086 41.0165 13.7333L40.3758 13.2231L39.8632 13.8608C38.838 15.0086 38.4536 17.0492 38.5817 18.5797C38.7098 19.7275 39.0943 20.8753 39.735 21.7681C39.2224 22.0231 38.5817 22.2782 38.0691 22.5333C36.9158 22.9159 35.7624 23.0434 34.6091 23.0434H1.41866L1.29051 23.8086C1.03422 26.2318 1.41866 28.7826 2.44385 31.0782L2.95644 31.971V32.0985C6.032 37.1999 11.5424 39.4956 17.5654 39.4956C29.0987 39.4956 38.5817 34.5217 43.0669 23.8086C46.0143 23.9362 48.9617 23.171 50.3714 20.3652L50.7558 19.7275L50.1151 19.3449C48.4491 18.3246 46.1425 18.197 44.2202 18.7072ZM27.6891 16.6666H22.6913V21.6405H27.6891V16.6666ZM27.6891 10.4173H22.6913V15.3913H27.6891V10.4173ZM27.6891 4.04053H22.6913V9.01444H27.6891V4.04053ZM33.8402 16.6666H28.8424V21.6405H33.8402V16.6666ZM15.2587 16.6666H10.2609V21.6405H15.2587V16.6666ZM21.538 16.6666H16.5402V21.6405H21.538V16.6666ZM9.10757 16.6666H4.10978V21.6405H9.10757V16.6666ZM21.538 10.4173H16.5402V15.3913H21.538V10.4173ZM15.2587 10.4173H10.2609V15.3913H15.2587V10.4173Z" fill="white"/>
<mask id="mask0_1918_2" style="mask-type:luminance" maskUnits="userSpaceOnUse" x="1" y="4" width="50" height="36">
<path d="M11.1579 32.6086C9.74831 32.6086 8.46682 31.4608 8.46682 30.0579C8.46682 28.655 9.62016 27.5072 11.1579 27.5072C12.6957 27.5072 13.8491 28.655 13.8491 30.0579C13.8491 31.4608 12.5676 32.6086 11.1579 32.6086ZM44.2202 18.7072C43.9639 16.6666 42.6824 15.0086 41.0165 13.7333L40.3758 13.2231L39.8632 13.8608C38.838 15.0086 38.4536 17.0492 38.5817 18.5797C38.7098 19.7275 39.0943 20.8753 39.735 21.7681C39.2224 22.0231 38.5817 22.2782 38.0691 22.5333C36.9158 22.9159 35.7624 23.0434 34.6091 23.0434H1.41866L1.29051 23.8086C1.03422 26.2318 1.41866 28.7826 2.44385 31.0782L2.95644 31.971V32.0985C6.032 37.1999 11.5424 39.4956 17.5654 39.4956C29.0987 39.4956 38.5817 34.5217 43.0669 23.8086C46.0143 23.9362 48.9617 23.171 50.3714 20.3652L50.7558 19.7275L50.1151 19.3449C48.4491 18.3246 46.1425 18.197 44.2202 18.7072V18.7072ZM27.6891 16.6666H22.6913V21.6405H27.6891V16.6666ZM27.6891 10.4173H22.6913V15.3913H27.6891V10.4173ZM27.6891 4.04053H22.6913V9.01444H27.6891V4.04053V4.04053ZM33.8402 16.6666H28.8424V21.6405H33.8402V16.6666ZM15.2587 16.6666H10.2609V21.6405H15.2587V16.6666V16.6666ZM21.538 16.6666H16.5402V21.6405H21.538V16.6666ZM9.10757 16.6666H4.10978V21.6405H9.10757V16.6666V16.6666ZM21.538 10.4173H16.5402V15.3913H21.538V10.4173ZM15.2587 10.4173H10.2609V15.3913H15.2587V10.4173V10.4173Z" fill="white"/>
</mask>
<g mask="url(#mask0_1918_2)">
<path d="M-62.5273 -24.7827H1571.11V168.307H-62.5273V-24.7827Z" fill="white"/>
</g>
<path d="M130.592 29.5478C132.771 27.6348 134.949 25.8492 137.128 23.9362C137.897 23.2985 138.666 22.6608 139.435 21.8956C138.794 21.1304 137.897 20.6203 137 20.2376C135.334 19.6 133.668 19.855 132.002 20.7478C129.952 21.8956 129.055 23.8087 129.183 26.1043C129.183 26.9971 129.439 27.8898 129.952 28.655C130.336 29.0376 130.464 29.2927 130.592 29.5478ZM133.155 31.3333C134.181 31.7159 135.462 31.7159 136.615 31.4608C137.128 31.2058 138.666 30.5681 139.178 30.6956H139.435C139.819 30.8232 140.075 31.0782 140.204 31.4608C140.588 32.2261 140.46 32.9913 139.691 33.3739L139.435 33.5014C136.615 35.1594 133.668 34.9043 130.849 33.3739C129.567 32.6087 128.542 31.5884 127.773 30.313L127.645 30.0579C125.851 26.9971 126.107 23.6811 128.158 20.7478C128.798 19.7275 129.824 18.9623 130.849 18.3246L131.233 18.0695C133.924 16.5391 136.744 16.6666 139.435 17.942C140.844 18.7072 142.126 19.7275 142.895 21.1304L143.023 21.3855C143.664 22.4058 142.895 23.2985 141.998 23.9362L139.307 26.2319C137 28.0174 135.078 29.6753 133.155 31.3333ZM154.044 17.3043H154.3C155.197 17.3043 155.838 17.942 155.838 18.8348C155.838 20.1101 154.684 20.3652 153.659 20.3652C152.378 20.3652 151.096 21.1304 150.199 22.0232C149.046 23.171 148.533 24.5739 148.533 26.1043V33.2463C148.533 34.0116 148.021 34.7768 147.124 34.7768H146.867C145.97 34.7768 145.458 34.1391 145.458 33.2463V25.7217C145.458 22.7884 146.867 20.4927 149.174 18.8348C150.84 17.8145 152.378 17.3043 154.044 17.3043ZM117.393 22.2782L120.853 18.8348C121.238 18.5797 122.391 17.1768 122.904 17.1768H123.416C124.057 17.3043 124.569 17.6869 124.569 18.4521V18.7072C124.569 19.2174 123.929 19.7275 123.672 20.1101C123.032 20.8753 122.263 21.513 121.622 22.2782L118.034 25.8492L122.647 30.4405L123.929 31.7159L124.441 32.2261C124.569 32.4811 124.698 32.6087 124.698 32.8637V33.2463C124.569 33.884 124.057 34.3942 123.416 34.3942H123.16C122.647 34.3942 122.135 33.884 121.75 33.5014C121.109 32.8637 120.341 32.2261 119.7 31.4608L117.393 29.2927V32.8637C117.393 33.629 116.881 34.3942 115.984 34.3942H115.727C114.83 34.3942 114.318 33.7565 114.318 32.8637V13.2232C114.318 12.4579 114.83 11.8203 115.727 11.8203H115.984C116.881 11.8203 117.393 12.4579 117.393 13.2232V22.2782ZM107.91 20.3652C107.526 20.1101 106.629 20.1101 106.116 20.1101C103.681 19.9826 101.887 21.3855 100.862 23.5536C100.478 24.3188 100.349 25.084 100.349 25.9768C100.349 28.5275 101.631 30.313 103.938 31.3333C104.706 31.7159 105.86 31.8434 106.757 31.8434C107.526 31.8434 108.679 31.3333 109.32 31.0782H109.961C110.601 31.2058 111.114 31.5884 111.114 32.3536V32.6087C111.114 34.3942 107.782 34.7768 106.629 34.9043C102.272 35.1594 98.9398 32.7362 97.6583 28.655C97.402 27.8898 97.402 27.2521 97.402 26.4869V25.8492C97.402 22.6608 98.9398 20.1101 101.759 18.5797C103.041 17.8145 104.45 17.4319 105.988 17.4319H106.629C108.166 17.4319 109.704 17.8145 110.986 18.7072L111.114 18.8348L111.242 18.9623C111.37 19.2174 111.498 19.4724 111.498 19.7275V19.9826C111.498 20.7478 110.986 21.1304 110.217 21.2579H110.089C109.192 21.0029 108.166 20.4927 107.91 20.3652ZM80.999 25.8492C80.999 28.0174 82.1523 29.6753 83.9464 30.8232C84.8434 31.3333 85.8686 31.5884 86.8938 31.5884C89.0724 31.5884 90.7383 30.4405 91.8916 28.655C92.4042 27.7623 92.6605 26.742 92.6605 25.7217C92.6605 23.6811 91.6353 22.0232 89.9694 20.8753C89.0723 20.2376 87.919 19.9826 86.8938 19.9826C84.459 19.9826 82.6649 21.2579 81.6397 23.4261C80.999 24.3188 80.999 25.084 80.999 25.8492ZM86.3812 17.1768H86.7657C90.2257 17.1768 92.7886 18.8348 94.4546 21.7681C95.0953 22.9159 95.4798 24.1913 95.4798 25.5942V26.2319C95.4798 29.4203 93.942 31.971 91.1227 33.5014C89.8412 34.2666 88.4316 34.6492 86.8938 34.6492H86.2531C83.0494 34.6492 80.4864 33.1188 78.9486 30.313C78.1797 29.0377 77.7953 27.6348 77.7953 26.1043V25.4666C77.7953 22.2782 79.3331 19.7275 82.1523 18.1971C83.562 17.5594 84.8435 17.1768 86.3812 17.1768ZM61.5204 25.8492C61.5204 28.1449 62.6738 29.9304 64.7241 30.9507C65.493 31.3333 66.3901 31.5884 67.4153 31.5884C69.7219 31.5884 71.3879 30.5681 72.5412 28.655C73.0538 27.7623 73.3101 26.742 73.3101 25.7217C73.3101 23.6811 72.4131 22.1507 70.7471 21.0029C69.7219 20.3652 68.6967 19.9826 67.4153 19.9826C64.9804 19.9826 63.1864 21.2579 62.1612 23.4261C61.7767 24.3188 61.5204 25.084 61.5204 25.8492ZM73.3101 19.3449V13.0956C73.3101 12.3304 73.8227 11.5652 74.7197 11.5652H74.976C75.8731 11.5652 76.3857 12.2029 76.3857 13.0956V26.2319C76.3857 29.4203 74.8479 31.971 72.0286 33.5014C70.7471 34.2666 69.3375 34.6492 67.7997 34.6492H67.159C63.9553 34.6492 61.3923 33.1188 59.8545 30.313C59.0856 29.0377 58.7012 27.6348 58.7012 26.1043V25.4666C58.7012 22.2782 60.239 19.7275 63.0582 18.1971C64.3397 17.4319 65.7493 17.0492 67.2871 17.0492H67.9279C69.8501 17.1768 71.7723 17.942 73.3101 19.3449Z" fill="white"/>
</svg>
