<svg width="158" height="48" viewBox="0 0 158 48" fill="none" xmlns="http://www.w3.org/2000/svg">
<g clip-path="url(#clip0_1918_2)">
<path d="M36.6604 20.0723H30.5212V28.9277H36.6604C39.2303 28.9277 41.3243 26.9397 41.3243 24.5C41.3243 22.0602 39.2303 20.0723 36.6604 20.0723Z" fill="white"/>
<path d="M0.253906 24.5C0.253906 31.3373 6.09166 36.8644 13.2778 36.8644C20.4639 36.8644 26.3017 31.3222 26.3017 24.5C26.3017 17.6777 20.4798 12.1355 13.2778 12.1355C6.07579 12.1355 0.253906 17.6626 0.253906 24.5Z" fill="white"/>
<path d="M88.0581 28.5512C88.0581 30.0874 86.7414 31.3524 85.1075 31.3524H84.0763C82.4583 31.3524 81.1257 30.1024 81.1257 28.5512L81.1416 18.8524H77.7627L77.7468 28.5512C77.7468 31.8645 80.5864 34.5602 84.0763 34.5602H85.1075C88.5974 34.5602 91.437 31.8645 91.437 28.5512L91.4528 18.8524H88.0739L88.0581 28.5512Z" fill="white"/>
<path d="M99.6384 21.2922H100.511C102.446 21.2922 104.001 22.7832 104.001 24.6055H107.38C107.38 21.0061 104.302 18.0693 100.511 18.0693H99.6384C95.847 18.0693 92.7695 21.0061 92.7695 24.6055V28.0392C92.7695 31.6386 95.8629 34.5603 99.6384 34.5603H100.511C104.302 34.5603 107.38 31.6236 107.38 28.0392V27.7983H104.001V28.0392C104.001 29.8766 102.43 31.3525 100.511 31.3525H99.6384C97.7031 31.3525 96.1484 29.8615 96.1484 28.0392V24.6055C96.1326 22.7832 97.7031 21.2922 99.6384 21.2922Z" fill="white"/>
<path d="M151.464 31.1415H146.34V25.6295H151.464C153.066 25.6295 154.367 26.8644 154.367 28.3855C154.367 29.9066 153.066 31.1415 151.464 31.1415ZM146.34 17.6476H150.433C151.813 17.6476 152.94 18.7169 152.94 20.0422C152.94 21.3524 151.813 22.4217 150.433 22.4217H146.34V17.6476ZM155.049 23.4909C155.843 22.5422 156.318 21.3373 156.318 20.0271C156.318 16.9397 153.669 14.4247 150.433 14.4247H142.961V34.3343H151.464C154.922 34.3343 157.746 31.6536 157.746 28.3705C157.746 26.3675 156.683 24.5753 155.049 23.4909Z" fill="white"/>
<path d="M132.412 31.1416H128.335V17.6477H132.412C135.506 17.6477 138.012 20.6748 138.012 24.3946C138.012 28.1145 135.506 31.1416 132.412 31.1416ZM132.412 14.4398H124.957V34.3495H132.412C137.362 34.3495 141.391 29.8766 141.391 24.3946C141.391 18.9127 137.362 14.4398 132.412 14.4398Z" fill="white"/>
<path d="M67.3721 31.1416H63.2952V17.6477H67.3721C70.4655 17.6477 72.9719 20.6748 72.9719 24.3946C72.9719 28.1145 70.4655 31.1416 67.3721 31.1416ZM67.3721 14.4398H59.9163V34.3495H67.3721C72.3215 34.3495 76.3508 29.8766 76.3508 24.3946C76.3508 18.9127 72.3215 14.4398 67.3721 14.4398Z" fill="white"/>
<path d="M122.736 18.1296H118.103L112.488 23.7922V14.485H109.109V34.3193H112.488V28.4759L114.106 26.8494L119.626 34.3193H123.751L116.47 24.4549L122.736 18.1296Z" fill="white"/>
</g>
<defs>
<clipPath id="clip0_1918_2">
<rect width="158" height="25" fill="white" transform="translate(0 12)"/>
</clipPath>
</defs>
</svg>
