<svg width="158" height="48" viewBox="0 0 158 48" fill="none" xmlns="http://www.w3.org/2000/svg">
<g clip-path="url(#clip0_1918_2)">
<mask id="mask0_1918_2" style="mask-type:luminance" maskUnits="userSpaceOnUse" x="10" y="-1" width="41" height="50">
<path d="M50.019 22.0862L36.9944 35.1154L50.019 48.1446H35.1358L22.1066 35.1154L35.1358 22.0862H50.019ZM35.1358 -0.240967L10.9453 23.9495L18.3892 31.3934L50.019 -0.240967H35.1358Z" fill="white"/>
</mask>
<g mask="url(#mask0_1918_2)">
<path d="M29.5506 42.5593L50.0191 22.0862H35.1359L22.1113 35.1154L29.5506 42.5593Z" fill="white"/>
</g>
<mask id="mask1_1918_2" style="mask-type:luminance" maskUnits="userSpaceOnUse" x="10" y="-1" width="41" height="50">
<path d="M50.019 22.0862L36.9944 35.1154L50.019 48.1446H35.1358L22.1066 35.1154L35.1358 22.0862H50.019ZM35.1358 -0.240967L10.9453 23.9495L18.3892 31.3934L50.019 -0.240967H35.1358Z" fill="white"/>
</mask>
<g mask="url(#mask1_1918_2)">
<path d="M10.9453 23.9495L35.1358 -0.240967H50.019L18.3892 31.3934L10.9453 23.9495Z" fill="white"/>
</g>
<mask id="mask2_1918_2" style="mask-type:luminance" maskUnits="userSpaceOnUse" x="10" y="-1" width="41" height="50">
<path d="M50.019 22.0862L36.9944 35.1154L50.019 48.1446H35.1358L22.1066 35.1154L35.1358 22.0862H50.019ZM35.1358 -0.240967L10.9453 23.9495L18.3892 31.3934L50.019 -0.240967H35.1358Z" fill="white"/>
</mask>
<g mask="url(#mask2_1918_2)">
<path d="M35.1358 48.1399H50.019L36.9945 35.1154L29.5505 42.5593L35.1358 48.1399Z" fill="white"/>
</g>
<mask id="mask3_1918_2" style="mask-type:luminance" maskUnits="userSpaceOnUse" x="10" y="-1" width="41" height="50">
<path d="M50.019 22.0862L36.9944 35.1154L50.019 48.1446H35.1358L22.1066 35.1154L35.1358 22.0862H50.019ZM35.1358 -0.240967L10.9453 23.9495L18.3892 31.3934L50.019 -0.240967H35.1358Z" fill="white"/>
</mask>
<g mask="url(#mask3_1918_2)">
<path d="M36.9945 35.1154L29.5505 42.5593L40.5907 38.7348L36.9945 35.1154Z" fill="url(#paint0_linear_1918_2)"/>
</g>
<mask id="mask4_1918_2" style="mask-type:luminance" maskUnits="userSpaceOnUse" x="10" y="-1" width="41" height="50">
<path d="M50.019 22.0862L36.9944 35.1154L50.019 48.1446H35.1358L22.1066 35.1154L35.1358 22.0862H50.019ZM35.1358 -0.240967L10.9453 23.9495L18.3892 31.3934L50.019 -0.240967H35.1358Z" fill="white"/>
</mask>
<g mask="url(#mask4_1918_2)">
<path d="M22.1104 35.1129L29.5545 27.6687L36.9991 35.1129L29.5545 42.557L22.1104 35.1129Z" fill="white"/>
</g>
<path d="M50.019 22.0862L36.9944 35.1154L50.019 48.1446H35.1358L22.1066 35.1154L35.1358 22.0862H50.019ZM35.1358 -0.240967L10.9453 23.9495L18.3892 31.3934L50.019 -0.240967H35.1358Z" fill="url(#paint1_radial_1918_2)"/>
<path d="M54.7439 12.7288H67.7519V15.2728H57.3839V22.9696H66.7439V25.4824H57.3839V35.2204H54.7439V12.7288ZM70.8995 12.7288H73.5695V35.2216H70.8995V12.7288ZM83.3375 35.7244C81.4111 35.7244 79.9311 35.1588 78.8975 34.0276C77.8991 32.8892 77.3999 31.308 77.3999 29.284V19.2004H80.0699V28.876C80.0699 30.396 80.4155 31.516 81.1067 32.236C81.7979 32.956 82.7299 33.316 83.9027 33.316C84.8035 33.316 85.6035 33.0752 86.3027 32.5936C87.0227 32.112 87.5667 31.484 87.9347 30.7096C88.3323 29.9336 88.5311 29.1168 88.5311 28.2592V19.2112H91.1999V35.2312H88.6559V32.896H88.5299C88.0899 33.692 87.3883 34.362 86.4251 34.906C85.4619 35.45 84.4355 35.722 83.3459 35.722L83.3375 35.7244Z" fill="white"/>
<path d="M101.477 35.4736C100.827 35.4736 100.22 35.3688 99.655 35.1592C99.111 34.9496 98.6502 34.6668 98.2726 34.3108C97.8534 33.9132 97.5394 33.4524 97.3306 32.9284C97.121 32.4052 97.0162 31.7664 97.0162 31.012V21.6196H94.2202V19.2004H97.0162V14.6764H99.6862V19.2004H103.581V21.6196H99.6862V30.3532C99.6862 31.2332 99.8542 31.8824 100.19 32.3008C100.588 32.7616 101.164 32.992 101.918 32.992C102.526 32.992 103.113 32.814 103.677 32.458V35.0656C103.363 35.212 103.038 35.3168 102.703 35.38C102.389 35.444 101.981 35.476 101.479 35.476L101.477 35.4736Z" fill="white"/>
<path d="M112.8 35.4736C112.15 35.4736 111.543 35.3688 110.978 35.1592C110.434 34.9496 109.973 34.6668 109.596 34.3108C109.177 33.9132 108.863 33.4524 108.654 32.9284C108.444 32.4052 108.339 31.7664 108.339 31.012V21.6196H105.543V19.2004H108.339V14.6764H111.009V19.2004H114.905V21.6196H111.009V30.3532C111.009 31.2332 111.177 31.8824 111.513 32.3008C111.911 32.7616 112.487 32.992 113.241 32.992C113.849 32.992 114.436 32.814 115.001 32.458V35.0656C114.686 35.212 114.361 35.3168 114.026 35.38C113.712 35.444 113.304 35.476 112.802 35.476L112.8 35.4736Z" fill="white"/>
<path d="M124.56 35.7244C123.04 35.7244 121.668 35.358 120.444 34.6252C119.229 33.8924 118.277 32.8872 117.585 31.6096C116.915 30.3112 116.58 28.8552 116.58 27.2416C116.58 25.692 116.894 24.268 117.522 22.9696C118.171 21.6712 119.083 20.6344 120.255 19.8592C121.428 19.0832 122.789 18.6952 124.339 18.6952C125.909 18.6952 127.271 19.0552 128.423 19.7752C129.575 20.4664 130.455 21.4296 131.063 22.6648C131.691 23.9008 132.005 25.3144 132.005 26.9056C132.005 27.22 131.973 27.492 131.909 27.7216H119.249C119.313 28.936 119.606 29.9624 120.128 30.8008C120.651 31.6384 121.311 32.2664 122.108 32.6848C122.924 33.104 123.772 33.3136 124.652 33.3136C126.705 33.3136 128.286 32.3504 129.396 30.424L131.658 31.5232C130.967 32.8216 130.024 33.848 128.831 34.6024C127.658 35.356 126.234 35.7328 124.559 35.7328L124.56 35.7244ZM129.177 25.5148C129.136 24.8444 128.948 24.1744 128.613 23.5048C128.277 22.8344 127.743 22.2688 127.011 21.808C126.291 21.3472 125.391 21.1168 124.311 21.1168C123.055 21.1168 121.987 21.5248 121.107 22.3408C120.249 23.1368 119.683 24.1944 119.411 25.5136H129.181L129.177 25.5148ZM135.098 19.2004H137.642V21.7768H137.768C138.083 20.8968 138.69 20.1744 139.59 19.6096C140.491 19.0232 141.433 18.73 142.417 18.73C143.15 18.73 143.778 18.8348 144.301 19.0444V21.934C143.631 21.598 142.877 21.43 142.039 21.43C141.263 21.43 140.551 21.65 139.903 22.09C139.253 22.53 138.733 23.1268 138.343 23.8804C137.967 24.6132 137.779 25.4132 137.779 26.2804V35.2324H135.109V19.2124L135.098 19.2004Z" fill="white"/>
</g>
<defs>
<linearGradient id="paint0_linear_1918_2" x1="31.7229" y1="43.9959" x2="37.267" y2="38.4518" gradientUnits="userSpaceOnUse">
<stop stop-color="#1A237E" stop-opacity="0.4"/>
<stop offset="1" stop-color="#1A237E" stop-opacity="0"/>
</linearGradient>
<radialGradient id="paint1_radial_1918_2" cx="0" cy="0" r="1" gradientUnits="userSpaceOnUse" gradientTransform="translate(12.043 3.05685) scale(59.1938)">
<stop stop-color="white" stop-opacity="0.1"/>
<stop offset="1" stop-color="white" stop-opacity="0"/>
</radialGradient>
<clipPath id="clip0_1918_2">
<rect width="158" height="48" fill="white"/>
</clipPath>
</defs>
</svg>
