<svg width="158" height="48" viewBox="0 0 158 48" fill="none" xmlns="http://www.w3.org/2000/svg">
<g clip-path="url(#clip0_1918_2)">
<path d="M90.5 6.75C90.5 3.57436 85.3513 1 79 1C72.6487 1 67.5 3.57436 67.5 6.75V41.25C67.5 44.4256 72.6487 47 79 47C85.3513 47 90.5 44.4256 90.5 41.25V6.75Z" fill="white"/>
<path d="M96.25 12.5H61.75C58.5744 12.5 56 17.6487 56 24C56 30.3513 58.5744 35.5 61.75 35.5H96.25C99.4256 35.5 102 30.3513 102 24C102 17.6487 99.4256 12.5 96.25 12.5Z" fill="white"/>
<path d="M72.6751 8.87756C73.8501 8.87756 74.8026 7.92504 74.8026 6.75006C74.8026 5.57507 73.8501 4.62256 72.6751 4.62256C71.5001 4.62256 70.5476 5.57507 70.5476 6.75006C70.5476 7.92504 71.5001 8.87756 72.6751 8.87756Z" fill="#030227"/>
<path d="M85.325 43.3776C86.5 43.3776 87.4525 42.425 87.4525 41.2501C87.4525 40.0751 86.5 39.1226 85.325 39.1226C84.15 39.1226 83.1975 40.0751 83.1975 41.2501C83.1975 42.425 84.15 43.3776 85.325 43.3776Z" fill="#030227"/>
<path d="M67.5 11.925H79" stroke="#030227"/>
<path d="M79 36.075H90.5" stroke="#030227"/>
<path d="M66.925 35.5C66.925 24 69.8 24 78.425 24C88.2001 24 91.0751 24 91.0751 12.5" stroke="#030227"/>
</g>
<defs>
<clipPath id="clip0_1918_2">
<rect width="46" height="46" fill="white" transform="translate(56 1)"/>
</clipPath>
</defs>
</svg>
