<svg width="158" height="48" viewBox="0 0 158 48" fill="none" xmlns="http://www.w3.org/2000/svg">
<g clip-path="url(#clip0_1918_2)">
<path d="M54.7731 6.25199C54.7731 5.87618 54.9224 5.51576 55.1881 5.25002C55.4539 4.98428 55.8143 4.83499 56.1901 4.83499C56.5659 4.83499 56.9263 4.98428 57.1921 5.25002C57.4578 5.51576 57.6071 5.87618 57.6071 6.25199C57.6071 6.62781 57.4578 6.98823 57.1921 7.25396C56.9263 7.5197 56.5659 7.66899 56.1901 7.66899C55.8143 7.66899 55.4539 7.5197 55.1881 7.25396C54.9224 6.98823 54.7731 6.62781 54.7731 6.25199ZM37.8681 19.082C37.8681 18.7062 38.0174 18.3458 38.2831 18.08C38.5489 17.8143 38.9093 17.665 39.2851 17.665C39.6609 17.665 40.0213 17.8143 40.2871 18.08C40.5528 18.3458 40.7021 18.7062 40.7021 19.082C40.7021 19.4578 40.5528 19.8182 40.2871 20.084C40.0213 20.3497 39.6609 20.499 39.2851 20.499C38.9093 20.499 38.5489 20.3497 38.2831 20.084C38.0174 19.8182 37.8681 19.4578 37.8681 19.082ZM71.6681 19.148C71.6681 18.7722 71.8174 18.4118 72.0831 18.146C72.3489 17.8803 72.7093 17.731 73.0851 17.731C73.4609 17.731 73.8213 17.8803 74.0871 18.146C74.3528 18.4118 74.5021 18.7722 74.5021 19.148C74.5021 19.5238 74.3528 19.8842 74.0871 20.15C73.8213 20.4157 73.4609 20.565 73.0851 20.565C72.7093 20.565 72.3489 20.4157 72.0831 20.15C71.8174 19.8842 71.6681 19.5238 71.6681 19.148ZM41.9701 21.1C42.6221 20.8 42.9171 20.046 42.6271 19.393L42.0001 17.96H44.4731V29.105H39.4851C38.8693 26.9422 38.6774 24.6807 38.9201 22.445L41.9701 21.1ZM52.3131 21.374V18.08H58.2001C58.5041 18.08 60.3471 18.432 60.3471 19.81C60.3471 20.954 58.9331 21.365 57.7711 21.365L52.3131 21.374ZM44.2731 39.061C44.2731 38.8749 44.3097 38.6906 44.381 38.5187C44.4522 38.3468 44.5565 38.1906 44.6881 38.059C44.8197 37.9274 44.9759 37.8231 45.1478 37.7519C45.3198 37.6806 45.504 37.644 45.6901 37.644C45.8762 37.644 46.0604 37.6806 46.2324 37.7519C46.4043 37.8231 46.5605 37.9274 46.6921 38.059C46.8236 38.1906 46.928 38.3468 46.9992 38.5187C47.0704 38.6906 47.1071 38.8749 47.1071 39.061C47.1071 39.4368 46.9578 39.7972 46.6921 40.063C46.4263 40.3287 46.0659 40.478 45.6901 40.478C45.3143 40.478 44.9539 40.3287 44.6881 40.063C44.4224 39.7972 44.2731 39.4368 44.2731 39.061ZM65.2691 39.127C65.2691 38.7512 65.4184 38.3908 65.6841 38.125C65.9499 37.8593 66.3103 37.71 66.6861 37.71C67.0619 37.71 67.4223 37.8593 67.6881 38.125C67.9538 38.3908 68.1031 38.7512 68.1031 39.127C68.1031 39.5028 67.9538 39.8632 67.6881 40.129C67.4223 40.3947 67.0619 40.544 66.6861 40.544C66.3103 40.544 65.9499 40.3947 65.6841 40.129C65.4184 39.8632 65.2691 39.5028 65.2691 39.127ZM65.7071 35.914C65.5411 35.8782 65.3696 35.8755 65.2026 35.9061C65.0355 35.9368 64.8762 36.0001 64.7337 36.0924C64.5911 36.1848 64.4683 36.3044 64.3721 36.4443C64.2759 36.5843 64.2082 36.7418 64.1731 36.908L63.4731 40.228C61.1858 41.264 58.7019 41.7941 56.1909 41.782C53.68 41.7699 51.2013 41.216 48.9241 40.158L48.2241 36.838C48.1888 36.6719 48.1211 36.5145 48.0249 36.3746C47.9286 36.2348 47.8057 36.1153 47.6632 36.023C47.5207 35.9308 47.3614 35.8676 47.1944 35.837C47.0274 35.8065 46.856 35.8092 46.6901 35.845L43.7601 36.475C43.2157 35.9143 42.7095 35.3176 42.2451 34.689H56.5031C56.6631 34.689 56.7731 34.659 56.7731 34.513V29.47C56.7731 29.323 56.6651 29.294 56.5031 29.294H52.3331V26.097H56.8331C57.2451 26.097 59.0331 26.215 59.6061 28.502L60.4481 32.227C60.7161 33.049 61.8081 34.69 62.9711 34.69H70.3331C69.8393 35.3507 69.2993 35.9757 68.7171 36.56L65.7071 35.914ZM73.6241 22.597C73.7242 23.6037 73.7366 24.6172 73.6611 25.626H71.8611C71.6811 25.626 71.6111 25.744 71.6111 25.919V26.741C71.6111 28.676 70.5111 29.097 69.5641 29.204C68.6641 29.307 67.6441 28.824 67.5201 28.266C66.9831 25.246 66.0881 24.6 64.6751 23.486C66.4291 22.372 68.2551 20.729 68.2551 18.53C68.2551 16.155 66.6271 14.66 65.5171 13.926C63.9601 12.9 62.2371 12.694 61.7711 12.694H43.2681C45.8273 9.83403 49.2581 7.89772 53.0291 7.18499L55.2111 9.48499C55.3281 9.60783 55.4682 9.70637 55.6234 9.77497C55.7786 9.84358 55.9458 9.8809 56.1154 9.8848C56.285 9.8887 56.4537 9.85911 56.6119 9.79771C56.77 9.73631 56.9145 9.64432 57.0371 9.52699L59.4791 7.19199C61.968 7.65807 64.3256 8.66035 66.3881 10.1292C68.4507 11.5981 70.1688 13.4983 71.4231 15.698L69.7531 19.473C69.4531 20.126 69.7591 20.891 70.4101 21.18L73.6241 22.597ZM77.7941 22.657L77.7371 22.073L79.4591 20.467C79.5377 20.3835 79.5953 20.2824 79.627 20.1722C79.6587 20.062 79.6636 19.9458 79.6413 19.8333C79.619 19.7208 79.5701 19.6152 79.4988 19.5254C79.4274 19.4356 79.3356 19.3642 79.2311 19.317L77.0311 18.494L76.8591 17.926L78.2321 16.019C78.2931 15.9217 78.3299 15.8112 78.3394 15.6968C78.349 15.5824 78.3311 15.4673 78.2871 15.3612C78.2432 15.2551 78.1745 15.1611 78.0868 15.0869C77.9992 15.0128 77.895 14.9607 77.7831 14.935L75.4631 14.557L75.1831 14.037L76.1581 11.897C76.3581 11.461 75.9881 10.904 75.5081 10.922L73.1531 11.004L72.7811 10.554L73.3211 8.25999C73.3402 8.1468 73.332 8.03068 73.2971 7.92131C73.2622 7.81194 73.2017 7.7125 73.1206 7.63127C73.0395 7.55005 72.9401 7.4894 72.8308 7.45439C72.7214 7.41938 72.6053 7.41101 72.4921 7.42999L70.1981 7.96999L69.7461 7.59799L69.8291 5.24299C69.8257 5.12827 69.795 5.01602 69.7394 4.9156C69.6838 4.81518 69.605 4.7295 69.5096 4.6657C69.4142 4.6019 69.305 4.56183 69.1909 4.54884C69.0769 4.53584 68.9614 4.5503 68.8541 4.59099L66.7141 5.56699L66.1941 5.28699L65.8161 2.96699C65.7903 2.85523 65.7383 2.75124 65.6642 2.66367C65.5901 2.57611 65.4962 2.5075 65.3902 2.46358C65.2843 2.41965 65.1694 2.40167 65.0551 2.41114C64.9408 2.4206 64.8304 2.45724 64.7331 2.51799L62.8331 3.87999L62.2661 3.70799L61.4431 1.50799C61.396 1.40337 61.3246 1.31151 61.2349 1.24006C61.1451 1.16861 61.0396 1.11964 60.9271 1.09724C60.8146 1.07484 60.6983 1.07964 60.5881 1.11126C60.4778 1.14287 60.3766 1.20038 60.2931 1.27899L58.6761 2.99999L58.0921 2.94299L56.8521 0.938994C56.7855 0.845692 56.6976 0.769642 56.5956 0.717173C56.4937 0.664703 56.3807 0.637329 56.2661 0.637329C56.1515 0.637329 56.0385 0.664703 55.9366 0.717173C55.8346 0.769642 55.7467 0.845692 55.6801 0.938994L54.4401 2.94299L53.8561 2.99999L52.2501 1.27699C52.1665 1.19838 52.0654 1.14087 51.9551 1.10926C51.8449 1.07764 51.7286 1.07284 51.6161 1.09524C51.5036 1.11764 51.3981 1.16661 51.3083 1.23806C51.2185 1.30951 51.1472 1.40137 51.1001 1.50599L50.2771 3.70599L49.7091 3.87799L47.8091 2.50799C47.7118 2.44703 47.6013 2.41022 47.4869 2.40065C47.3725 2.39107 47.2574 2.409 47.1513 2.45294C47.0452 2.49688 46.9512 2.56556 46.877 2.65325C46.8029 2.74093 46.7508 2.84508 46.7251 2.95699L46.3471 5.27699L45.8271 5.55699L43.6871 4.58099C43.5798 4.5403 43.4643 4.52584 43.3503 4.53884C43.2362 4.55183 43.127 4.5919 43.0315 4.6557C42.9361 4.7195 42.8574 4.80518 42.8018 4.9056C42.7462 5.00602 42.7155 5.11827 42.7121 5.23299L42.7941 7.58799L42.3421 7.95999L40.0481 7.41999C39.9348 7.40083 39.8186 7.40906 39.7091 7.44399C39.5997 7.47892 39.5001 7.53955 39.4189 7.62079C39.3376 7.70204 39.277 7.80155 39.2421 7.91101C39.2072 8.02047 39.1989 8.1367 39.2181 8.24999L39.7581 10.544L39.3881 10.994L37.0331 10.912C36.5581 10.898 36.1831 11.452 36.3811 11.887L37.3571 14.027L37.0771 14.547L34.7571 14.925C34.2871 15.002 34.0301 15.621 34.3071 16.009L35.6801 17.916L35.5081 18.484L33.3081 19.307C33.2035 19.3542 33.1118 19.4256 33.0404 19.5154C32.9691 19.6052 32.9202 19.7108 32.8979 19.8233C32.8756 19.9358 32.8805 20.052 32.9122 20.1622C32.9439 20.2724 33.0015 20.3735 33.0801 20.457L34.8021 22.063L34.7451 22.647L32.7421 23.887C32.6488 23.9536 32.5727 24.0415 32.5203 24.1434C32.4678 24.2454 32.4404 24.3584 32.4404 24.473C32.4404 24.5876 32.4678 24.7006 32.5203 24.8025C32.5727 24.9045 32.6488 24.9924 32.7421 25.059L34.7451 26.299L34.8021 26.883L33.0801 28.489C33.0015 28.5725 32.9439 28.6735 32.9122 28.7838C32.8805 28.894 32.8756 29.0102 32.8979 29.1227C32.9202 29.2352 32.9691 29.3408 33.0404 29.4306C33.1118 29.5204 33.2035 29.5918 33.3081 29.639L35.5081 30.462L35.6801 31.03L34.3071 32.937C34.2463 33.0343 34.2097 33.1447 34.2002 33.259C34.1908 33.3733 34.2088 33.4882 34.2527 33.5941C34.2966 33.7001 34.3652 33.794 34.4528 33.8681C34.5403 33.9422 34.6443 33.9942 34.7561 34.02L37.0761 34.398L37.3561 34.92L36.3801 37.06C36.3394 37.1673 36.3249 37.2828 36.3379 37.3968C36.3509 37.5109 36.391 37.6201 36.4548 37.7155C36.5186 37.8109 36.6043 37.8897 36.7047 37.9453C36.8051 38.0009 36.9174 38.0316 37.0321 38.035L39.3861 37.952L39.7581 38.404L39.2181 40.699C39.1993 40.8121 39.2078 40.9281 39.2429 41.0373C39.278 41.1465 39.3387 41.2457 39.4199 41.3268C39.5011 41.4078 39.6004 41.4682 39.7097 41.503C39.819 41.5379 39.935 41.5461 40.0481 41.527L42.3421 40.987L42.7941 41.357L42.7121 43.713C42.7156 43.8276 42.7465 43.9398 42.8021 44.0401C42.8578 44.1403 42.9366 44.2259 43.0319 44.2896C43.1273 44.3533 43.2365 44.3933 43.3505 44.4062C43.4645 44.4191 43.5799 44.4047 43.6871 44.364L45.8271 43.389L46.3471 43.669L46.7251 45.989C46.7507 46.101 46.8027 46.2053 46.8768 46.2931C46.9508 46.3809 47.0449 46.4497 47.151 46.4937C47.2571 46.5378 47.3722 46.5558 47.4867 46.5462C47.6012 46.5367 47.7117 46.5 47.8091 46.439L49.7161 45.065L50.2841 45.238L51.1071 47.438C51.1543 47.5425 51.2257 47.6343 51.3155 47.7057C51.4053 47.777 51.5109 47.8259 51.6234 47.8482C51.7359 47.8705 51.8521 47.8656 51.9623 47.8339C52.0725 47.8022 52.1736 47.7446 52.2571 47.666L53.8631 45.944L54.4471 46.002L55.6871 48.005C55.9371 48.409 56.6071 48.41 56.8591 48.005L58.1001 46L58.6841 45.942L60.2901 47.664C60.3736 47.7426 60.4746 47.8002 60.5849 47.8319C60.6951 47.8636 60.8113 47.8685 60.9238 47.8462C61.0363 47.8239 61.1419 47.775 61.2317 47.7037C61.3215 47.6323 61.3929 47.5405 61.4401 47.436L62.2631 45.236L62.8311 45.063L64.7381 46.437C64.8354 46.4977 64.9459 46.5343 65.0603 46.5438C65.1746 46.5532 65.2896 46.5351 65.3956 46.4911C65.5015 46.447 65.5954 46.3783 65.6694 46.2906C65.7435 46.203 65.7955 46.0988 65.8211 45.987L66.1991 43.667L66.7191 43.387L68.8591 44.362C68.9663 44.4027 69.0817 44.4171 69.1957 44.4042C69.3096 44.3912 69.4189 44.3513 69.5142 44.2876C69.6096 44.2239 69.6884 44.1383 69.7441 44.0381C69.7997 43.9378 69.8306 43.8256 69.8341 43.711L69.7521 41.355L70.2041 40.985L72.4981 41.525C72.6111 41.5439 72.727 41.5355 72.8362 41.5006C72.9453 41.4657 73.0445 41.4053 73.1256 41.3243C73.2067 41.2433 73.2673 41.1441 73.3023 41.035C73.3374 40.9259 73.3459 40.81 73.3271 40.697L72.7871 38.402L73.1571 37.95L75.5121 38.033C75.6267 38.0295 75.7389 37.9986 75.8392 37.943C75.9394 37.8873 76.025 37.8085 76.0887 37.7131C76.1524 37.6178 76.1924 37.5085 76.2053 37.3946C76.2182 37.2806 76.2038 37.1652 76.1631 37.058L75.1881 34.918L75.4681 34.396L77.7881 34.018C77.8999 33.9922 78.0039 33.9402 78.0914 33.8661C78.179 33.792 78.2476 33.6981 78.2915 33.5921C78.3354 33.4862 78.3534 33.3713 78.3439 33.257C78.3345 33.1427 78.2978 33.0323 78.2371 32.935L76.8641 31.028L77.0361 30.46L79.2361 29.637C79.3406 29.5898 79.4324 29.5184 79.5038 29.4286C79.5751 29.3388 79.624 29.2332 79.6463 29.1207C79.6686 29.0082 79.6637 28.892 79.632 28.7818C79.6003 28.6715 79.5427 28.5705 79.4641 28.487L77.7421 26.881L77.7991 26.297L79.8021 25.057C79.8954 24.9904 79.9714 24.9025 80.0239 24.8005C80.0764 24.6986 80.1038 24.5856 80.1038 24.471C80.1038 24.3564 80.0764 24.2434 80.0239 24.1415C79.9714 24.0395 79.8954 23.9516 79.8021 23.885L77.7941 22.657ZM82.8861 26.527V18.187H87.2861V19.553C87.2861 20.2863 87.2821 21.217 87.2741 22.345C87.2661 23.4583 87.2621 24.2017 87.2621 24.575C87.2621 25.6723 87.2904 26.465 87.3471 26.953C87.4038 27.433 87.5014 27.783 87.6401 28.003C87.8188 28.2877 88.0504 28.507 88.3351 28.661C88.6284 28.8157 88.9618 28.893 89.3351 28.893C90.2458 28.893 90.9611 28.543 91.4811 27.843C92.0011 27.143 92.2611 26.1717 92.2611 24.929V18.186H96.6261V31.843H92.2501V29.868C91.5914 30.6647 90.8924 31.254 90.1531 31.636C89.4218 32.0093 88.6128 32.196 87.7261 32.196C86.1488 32.196 84.9488 31.7127 84.1261 30.746C83.3048 29.7793 82.8941 28.3727 82.8941 26.526L82.8861 26.527ZM111.504 18.613V21.93C110.569 21.54 109.667 21.2473 108.797 21.052C107.927 20.8567 107.106 20.759 106.334 20.759C105.505 20.759 104.887 20.8647 104.481 21.076C104.083 21.2793 103.884 21.596 103.884 22.026C103.884 22.3753 104.034 22.6437 104.334 22.831C104.643 23.0177 105.191 23.156 105.98 23.246L106.748 23.346C108.983 23.6307 110.487 24.098 111.26 24.748C112.032 25.398 112.418 26.418 112.418 27.808C112.418 29.2633 111.885 30.3567 110.818 31.088C109.751 31.8193 108.15 32.185 106.014 32.185C105.111 32.185 104.176 32.1117 103.209 31.965C102.249 31.827 101.261 31.6157 100.246 31.331V28.014C101.116 28.4367 102.006 28.7533 102.916 28.964C103.835 29.1753 104.765 29.281 105.708 29.281C106.561 29.281 107.204 29.163 107.635 28.927C108.066 28.691 108.281 28.341 108.281 27.877C108.281 27.487 108.131 27.1983 107.831 27.011C107.538 26.8157 106.948 26.6657 106.063 26.561L105.295 26.463C103.352 26.219 101.991 25.7677 101.21 25.109C100.43 24.4503 100.04 23.4503 100.04 22.109C100.04 20.6623 100.536 19.589 101.528 18.889C102.52 18.189 104.04 17.839 106.088 17.839C106.893 17.839 107.738 17.9 108.624 18.022C109.511 18.144 110.477 18.335 111.524 18.595L111.504 18.613ZM120.48 14.308V18.186H124.98V21.308H120.48V27.1C120.48 27.7333 120.606 28.1643 120.858 28.393C121.11 28.613 121.61 28.723 122.358 28.723H124.602V31.845H120.859C119.136 31.845 117.912 31.4873 117.189 30.772C116.474 30.0487 116.116 28.8253 116.116 27.102V21.3H113.946V18.178H116.116V14.3H120.481L120.48 14.308Z" fill="black"/>
</g>
<defs>
<clipPath id="clip0_1918_2">
<rect width="158" height="48" fill="white"/>
</clipPath>
</defs>
</svg>
