<svg width="158" height="48" viewBox="0 0 158 48" fill="none" xmlns="http://www.w3.org/2000/svg">
<g clip-path="url(#clip0_1918_2)">
<path d="M50.4844 40.5859L50.5078 40.6328C46.9766 40.6328 44.0938 39.8906 41.8594 38.4062C39.6406 36.9375 38.2812 34.8516 37.7812 32.1484C37.6875 31.5234 37.8203 31.0156 38.1797 30.625C38.5391 30.25 39.0547 30.0625 39.7266 30.0625H44.9531C45.4844 30.0625 45.8828 30.1797 46.1484 30.4141C46.3984 30.6328 46.6406 31.0078 46.875 31.5391C47.3906 33.0703 48.6016 33.8359 50.5078 33.8359C51.4922 33.8359 52.3359 33.6016 53.0391 33.1328C53.7422 32.6641 54.0938 32.0625 54.0938 31.3281C54.0938 30.6875 53.7969 30.1328 53.2031 29.6641C52.6094 29.1953 51.8359 28.7969 50.8828 28.4688C50.1484 28.2188 49.0938 27.8828 47.7188 27.4609C46.625 27.1328 45.4766 26.6953 44.2734 26.1484C43.1328 25.6328 42.0781 25.0234 41.1094 24.3203C40.1406 23.6172 39.3672 22.6562 38.7891 21.4375C38.1953 20.2031 37.8984 18.8047 37.8984 17.2422C37.8984 14.0703 39.0234 11.6172 41.2734 9.88281C43.5234 8.14844 46.5156 7.28125 50.25 7.28125C53.6875 7.28125 56.4531 7.96875 58.5469 9.34375C60.6562 10.7344 61.9453 12.6875 62.4141 15.2031C62.5078 15.8438 62.3828 16.3438 62.0391 16.7031C61.6797 17.0781 61.1641 17.2656 60.4922 17.2656H55.3594C54.5312 17.2656 53.9062 16.8672 53.4844 16.0703C52.8906 14.7266 51.7891 14.0547 50.1797 14.0547C49.2266 14.0547 48.4453 14.2656 47.8359 14.6875C47.2266 15.1094 46.9219 15.6719 46.9219 16.375C46.9219 17.1094 47.3203 17.7344 48.1172 18.25C48.9141 18.7656 49.9141 19.1641 51.1172 19.4453C52.3203 19.7266 53.6094 20.125 54.9844 20.6406C56.4062 21.1719 57.6953 21.7656 58.8516 22.4219C60.0547 23.1094 61.0547 24.1172 61.8516 25.4453C62.6484 26.7734 63.0469 28.3672 63.0469 30.2266C63.0469 33.4453 61.9141 35.9766 59.6484 37.8203C57.3828 39.6641 54.3281 40.5859 50.4844 40.5859ZM93.6328 28.2812L93.6094 28.3281C93.6094 32.4531 92.1406 35.6562 89.2031 37.9375L91.0078 41.7812C91.3047 42.4844 91.3281 43.0469 91.0781 43.4688C90.8281 43.8906 90.3125 44.1016 89.5312 44.1016H85.8281C84.7344 44.1016 83.9531 43.625 83.4844 42.6719L82.4297 40.4453C81.7891 40.5234 81.0703 40.5781 80.2734 40.6094C76.2578 40.6094 73.0156 39.4844 70.5469 37.2344C68.0938 34.9844 66.8672 32 66.8672 28.2812V19.5625C66.8672 15.8438 68.0938 12.8594 70.5469 10.6094C73.0156 8.35938 76.2578 7.23438 80.2734 7.23438C84.3047 7.23438 87.5391 8.35938 89.9766 10.6094C92.4141 12.8594 93.6328 15.8438 93.6328 19.5625V28.2812ZM75.5156 28.1875L75.4922 28.2109C75.4922 29.5391 75.9219 30.625 76.7812 31.4688C77.6562 32.3125 78.8125 32.7344 80.25 32.7344H80.5781L79.9922 31.5859C79.6953 30.8984 79.6875 30.3281 79.9688 29.875C80.25 29.4375 80.7578 29.2188 81.4922 29.2188H83.3203C83.8984 29.2188 84.3906 29.3516 84.7969 29.6172C84.9219 29.1953 84.9844 28.7266 84.9844 28.2109V19.7734C84.9844 18.4297 84.5469 17.3359 83.6719 16.4922C82.8125 15.6484 81.6719 15.2266 80.25 15.2266C78.8125 15.2266 77.6641 15.6484 76.8047 16.4922C75.9453 17.3359 75.5156 18.4219 75.5156 19.75V28.1875ZM117.562 32.0781C118.906 32.0781 119.578 32.7344 119.578 34.0469V37.9844C119.578 39.3281 118.906 40 117.562 40H101.18C99.8359 40 99.1641 39.3281 99.1641 37.9844V9.85938C99.1641 8.51563 99.8359 7.84375 101.18 7.84375H105.797C107.141 7.84375 107.812 8.51563 107.812 9.85938V32.0781H117.562Z" fill="white"/>
</g>
<defs>
<clipPath id="clip0_1918_2">
<rect width="158" height="48" fill="white"/>
</clipPath>
</defs>
</svg>
