<svg width="158" height="48" viewBox="0 0 158 48" fill="none" xmlns="http://www.w3.org/2000/svg">
<g clip-path="url(#clip0_1918_2)">
<path d="M55.75 5.91667V42.0833C55.75 44.9379 58.0621 47.25 60.9167 47.25H97.0833C99.9379 47.25 102.25 44.9379 102.25 42.0833V5.91667C102.25 3.06208 99.9379 0.75 97.0833 0.75H60.9167C58.0621 0.75 55.75 3.06208 55.75 5.91667ZM83.3038 25.1651H77.8323V42.0833H73.4226V25.1651H68.0648V21.4167H83.3038V25.1651ZM84.1615 41.1172V36.5937C84.1615 36.5937 86.6312 38.4563 89.5968 38.4563C92.5625 38.4563 92.4462 36.5188 92.4462 36.2527C92.4462 33.4395 84.0478 33.4395 84.0478 27.2085C84.0478 18.7326 96.2851 22.078 96.2851 22.078L96.1327 26.1054C96.1327 26.1054 94.0815 24.7362 91.7617 24.7362C89.4444 24.7362 88.6074 25.8393 88.6074 27.0173C88.6074 30.0579 97.0833 29.7531 97.0833 35.873C97.0833 45.297 84.1615 41.1172 84.1615 41.1172Z" fill="black"/>
</g>
<defs>
<clipPath id="clip0_1918_2">
<rect width="158" height="48" fill="white"/>
</clipPath>
</defs>
</svg>
